<svg xmlns="http://www.w3.org/2000/svg" width="100" height="50" viewBox="0 0 1024 427" version="1.1"><path d="M 796 125.500 L 796 241 814 241 L 832 241 832 125.500 L 832 10 814 10 L 796 10 796 125.500" stroke="none" fill="#249a41" fill-rule="evenodd"/><path d="M 138 3.414 C 85.694 12.728, 45.451 52.341, 36.323 103.500 C 34.175 115.534, 34.236 135.020, 36.456 146.446 C 48.616 209.026, 107.159 252.573, 170.368 246.056 C 218.539 241.090, 255.562 210.919, 267.511 166.893 C 270.821 154.698, 272.668 133.493, 271.422 122 L 270.500 113.500 214 113.500 L 157.500 113.500 157.500 130 L 157.500 146.500 196.877 146.762 L 236.255 147.023 235.564 152.262 C 231.905 180.005, 211.245 201.146, 179.500 209.629 C 169.887 212.198, 146.390 212.184, 137.002 209.603 C 110.935 202.437, 88.761 183.595, 78.140 159.583 C 72.913 147.767, 71.502 140.277, 71.528 124.500 C 71.549 111.959, 71.926 108.189, 73.828 101.500 C 78.911 83.624, 90.271 66.379, 104.083 55.572 C 113.293 48.366, 126.886 41.798, 138.468 38.959 C 146.262 37.049, 149.275 36.828, 161.468 37.274 C 169.805 37.578, 177.935 38.454, 181.500 39.432 C 189.856 41.723, 204.284 48.939, 211.909 54.641 L 218.318 59.433 230.159 47.042 C 236.672 40.227, 241.995 34.392, 241.990 34.076 C 241.984 33.759, 237.822 30.390, 232.740 26.588 C 218.971 16.288, 201.493 8.372, 184 4.513 C 173.849 2.274, 147.888 1.654, 138 3.414 M 683 89.571 C 668.230 93.436, 649.474 106.204, 640.268 118.659 C 617.821 149.029, 616.577 179.463, 636.512 210.526 C 644.855 223.525, 652.928 230.822, 666.205 237.363 C 684.662 246.457, 700.093 248.183, 716 242.935 C 724.251 240.213, 727.038 238.784, 734.750 233.324 L 741 228.899 740.983 237.199 C 740.937 258.833, 733.068 273.933, 718.392 280.547 C 710.761 283.986, 698.412 285.538, 690.719 284.024 C 680.029 281.921, 670.583 274.606, 663.280 262.774 C 661.291 259.552, 659.177 257.128, 658.582 257.387 C 657.987 257.647, 651.665 260.374, 644.533 263.447 C 637.401 266.520, 631.178 269.422, 630.704 269.896 C 629.545 271.055, 633.731 279.114, 639.427 286.692 C 657.809 311.144, 685.515 320.380, 719.717 313.455 C 747.094 307.913, 766.925 285.962, 772.526 255 C 773.603 249.045, 773.843 231.642, 773.691 170.500 L 773.500 93.500 758.007 93.223 C 740.371 92.907, 740 93.061, 740 100.684 L 740 104.987 733.250 100.342 C 720.508 91.576, 709.691 87.958, 696.540 88.066 C 692.118 88.102, 686.025 88.779, 683 89.571 M 694.176 121.070 C 677.927 124.268, 663.928 138.958, 660.129 156.799 C 655.436 178.832, 665.815 201.545, 684.734 210.645 C 691.331 213.818, 693.212 214.266, 700.367 214.370 C 710.492 214.518, 716.884 212.442, 724.932 206.392 C 735.991 198.078, 741.965 186.196, 742.754 170.944 C 743.339 159.651, 742.112 153.005, 737.846 144.339 C 732.205 132.880, 722.300 124.614, 710.540 121.552 C 704.053 119.863, 700.798 119.767, 694.176 121.070" stroke="none" fill="#3174f1" fill-rule="evenodd"/><path d="M 514.500 89.593 C 489.245 95.206, 467.252 113.808, 457.503 137.799 C 449.348 157.871, 450.376 182.431, 460.220 202.639 C 474.824 232.621, 509.207 250.855, 542.077 246.049 C 559.931 243.439, 575.682 235.288, 588.204 222.181 C 608.569 200.866, 615.445 173.125, 607.335 145 C 599.922 119.292, 580.080 99.385, 553.500 90.988 C 544.165 88.040, 524.632 87.341, 514.500 89.593 M 518.214 122.891 C 506.388 126.976, 495.799 137.373, 490.832 149.775 C 488.873 154.669, 488.537 157.326, 488.520 168.075 L 488.500 180.651 492.748 189.223 C 506.462 216.899, 539.938 223.160, 561.134 202.013 C 567.273 195.888, 570.889 189.629, 573.523 180.570 C 575.861 172.525, 575.172 157.714, 572.088 149.757 C 567.285 137.366, 555.441 125.990, 543.718 122.509 C 536.763 120.444, 524.780 120.623, 518.214 122.891 M 239.696 309.150 C 238.318 311.543, 233.731 319.800, 229.503 327.500 C 225.275 335.200, 221.497 341.837, 221.109 342.249 C 220.720 342.661, 211.001 344.809, 199.512 347.022 C 188.022 349.235, 178.435 351.231, 178.208 351.459 C 177.980 351.686, 184.550 359.008, 192.806 367.730 L 207.818 383.587 205.093 405.294 C 203.595 417.232, 202.778 427, 203.279 427 C 203.779 427, 212.837 422.947, 223.407 417.993 L 242.625 408.986 261.563 417.974 C 271.978 422.917, 280.981 426.971, 281.569 426.981 C 282.478 426.997, 280.271 404.839, 277.602 387.167 C 277.126 384.017, 277.921 382.961, 292.145 367.846 C 300.420 359.052, 307.008 351.675, 306.785 351.451 C 306.561 351.228, 296.978 349.235, 285.488 347.022 C 273.999 344.809, 264.278 342.661, 263.887 342.249 C 263.496 341.837, 258.838 333.625, 253.535 324 C 248.232 314.375, 243.513 306.118, 243.047 305.650 C 242.582 305.183, 241.074 306.758, 239.696 309.150 M 368.043 323.922 L 357.625 342.843 336.667 346.901 C 325.140 349.132, 315.484 351.182, 315.210 351.456 C 314.936 351.731, 319.164 356.726, 324.606 362.556 C 330.048 368.387, 336.685 375.609, 339.356 378.605 L 344.212 384.053 342.075 401.828 C 340.900 411.604, 339.669 421.268, 339.338 423.302 C 338.965 425.604, 339.136 427, 339.791 427 C 340.370 427, 349.425 422.957, 359.914 418.015 L 378.984 409.030 398.497 418.176 C 409.230 423.207, 418.277 427.056, 418.602 426.731 C 418.928 426.406, 417.965 416.663, 416.463 405.081 L 413.733 384.023 421.616 375.470 C 425.952 370.766, 432.600 363.548, 436.389 359.431 C 440.177 355.313, 443.046 351.712, 442.763 351.430 C 442.480 351.147, 432.855 349.101, 421.374 346.884 L 400.500 342.852 390.088 323.926 C 384.361 313.517, 379.402 305, 379.068 305 C 378.734 305, 373.773 313.515, 368.043 323.922 M 503.137 324.008 C 497.437 334.453, 492.635 343, 492.466 343 C 490.905 343, 450.617 351.050, 450.227 351.439 C 449.943 351.723, 455.064 357.644, 461.606 364.596 C 468.147 371.549, 474.822 378.822, 476.438 380.759 L 479.376 384.280 477.100 403.390 C 475.848 413.901, 474.589 423.512, 474.303 424.750 C 474.010 426.016, 474.256 427, 474.864 427 C 475.459 427, 484.548 422.960, 495.062 418.022 L 514.179 409.045 533.603 418.175 C 544.287 423.197, 553.306 427.027, 553.647 426.687 C 553.987 426.346, 553.070 416.555, 551.608 404.928 L 548.950 383.788 559.725 372.301 C 573.825 357.268, 578.349 352.016, 577.732 351.399 C 577.454 351.120, 567.838 349.070, 556.363 346.843 L 535.500 342.793 525.346 324.179 C 519.762 313.941, 514.812 305.441, 514.346 305.290 C 513.881 305.139, 508.837 313.562, 503.137 324.008 M 636.994 323.915 L 626.625 342.831 605.688 346.873 C 594.173 349.096, 584.518 351.149, 584.232 351.435 C 583.946 351.721, 587.714 356.259, 592.606 361.521 C 597.498 366.782, 604.143 373.998, 607.374 377.557 L 613.248 384.029 611.059 401.764 C 609.856 411.519, 608.617 421.188, 608.308 423.250 C 607.961 425.559, 608.148 427, 608.794 427 C 609.371 427, 618.425 422.957, 628.914 418.015 L 647.984 409.030 667.497 418.176 C 678.230 423.207, 687.246 427.087, 687.534 426.799 C 687.822 426.511, 686.864 416.782, 685.405 405.179 L 682.753 384.082 688.626 377.610 C 691.857 374.051, 698.502 366.823, 703.394 361.547 C 708.286 356.271, 712.054 351.721, 711.768 351.435 C 711.482 351.149, 701.848 349.100, 690.358 346.882 L 669.467 342.849 659.037 323.924 C 653.301 313.516, 648.327 305, 647.985 305 C 647.643 305, 642.697 313.512, 636.994 323.915 M 774.885 323.923 L 764.543 342.847 743.647 346.881 C 732.154 349.100, 722.526 351.140, 722.251 351.416 C 721.749 351.917, 725.891 356.655, 742.330 374.383 L 751.160 383.906 748.496 405.035 C 747.030 416.657, 746.092 426.425, 746.410 426.744 C 746.729 427.062, 755.755 423.214, 766.469 418.192 L 785.949 409.061 805.065 418.031 C 815.579 422.964, 824.641 427, 825.202 427 C 825.802 427, 825.990 425.662, 825.658 423.750 C 825.348 421.962, 824.102 412.330, 822.888 402.344 L 820.683 384.189 824.591 379.688 C 826.741 377.213, 833.402 369.960, 839.394 363.571 C 845.386 357.182, 850.064 351.731, 849.790 351.457 C 849.516 351.182, 839.860 349.132, 828.333 346.901 L 807.375 342.843 796.957 323.922 C 791.227 313.515, 786.244 305, 785.883 305 C 785.522 305, 780.573 313.516, 774.885 323.923" stroke="none" fill="#f6ad01" fill-rule="evenodd"/><path d="M 346.075 89.087 C 333.771 91.501, 319.765 98.215, 309.680 106.534 C 302.740 112.259, 293.815 123.330, 289.974 130.981 C 268.391 173.964, 289.069 226.218, 333.945 242.098 C 354.592 249.405, 375.775 248.176, 395.500 238.526 C 411.798 230.554, 423.431 218.929, 431.550 202.500 C 438.180 189.086, 439.506 183.032, 439.440 166.500 C 439.387 153.408, 439.173 151.884, 436.141 143 C 432.005 130.883, 426.526 121.655, 418.279 112.913 C 407.060 101.020, 392.388 92.813, 376.463 89.524 C 368.552 87.890, 353.296 87.671, 346.075 89.087 M 909 89.690 C 890.013 92.860, 870.677 105.499, 859.153 122.270 C 843.558 144.969, 841.292 176.432, 853.457 201.378 C 867.956 231.112, 900.133 248.932, 932.099 244.930 C 950.170 242.667, 964.564 235.599, 977.600 222.586 C 990.148 210.059, 990.337 211.565, 974.917 201.293 L 961.786 192.546 959.826 195.023 C 948.818 208.930, 936.953 214.500, 919.753 213.836 C 912.416 213.552, 909.360 212.946, 904.998 210.908 C 898.841 208.032, 891.613 201.306, 888.316 195.385 L 886.132 191.462 937.186 170 C 965.266 158.196, 988.471 147.937, 988.752 147.203 C 989.529 145.178, 984.174 132.707, 978.619 123.605 C 964.972 101.243, 943.612 88.795, 919.500 89.154 C 915.100 89.219, 910.375 89.460, 909 89.690 M 911 121.532 C 892.897 126.534, 883.767 136.997, 880.716 156.241 C 880.129 159.948, 879.903 163.237, 880.216 163.549 C 880.674 164.007, 947.630 136.606, 948.851 135.460 C 949.044 135.279, 947.116 132.900, 944.565 130.173 C 936.401 121.445, 923.414 118.102, 911 121.532 M 347.416 122.900 C 329.483 129.480, 317 147.645, 317 167.161 C 317 191.013, 332.448 210.184, 354.848 214.130 C 367.634 216.382, 381.478 211.422, 391.381 201.039 C 409.268 182.287, 409.036 151.942, 390.866 133.722 C 387.137 129.982, 382.703 126.817, 378.302 124.753 C 372.375 121.973, 370.278 121.529, 362 121.299 C 354.710 121.096, 351.317 121.468, 347.416 122.900" stroke="none" fill="#e63125" fill-rule="evenodd"/><path d="" stroke="none" fill="#000000" fill-rule="evenodd"/><path d="" stroke="none" fill="#ee820e" fill-rule="evenodd"/><path d="M 269.448 19.276 C 269.178 19.978, 269.080 29.990, 269.229 41.526 L 269.500 62.500 275.750 62.798 L 282 63.095 282 55.120 L 282 47.144 287.571 46.448 C 291.282 45.984, 294.113 44.934, 296.052 43.303 C 301.891 38.390, 302.399 26.245, 296.991 20.837 C 294.187 18.033, 294.012 18, 282.046 18 C 273.151 18, 269.807 18.339, 269.448 19.276 M 305 40.500 L 305 63 310.500 63 L 316 63 316 40.500 L 316 18 310.500 18 L 305 18 305 40.500 M 466.231 40.250 L 466.500 62.500 472.250 62.800 L 478 63.100 478 53.967 C 478 47.135, 478.315 44.924, 479.250 45.192 C 479.938 45.389, 482.425 49.477, 484.778 54.275 L 489.055 63 495.528 63 C 499.087 63, 502 62.612, 502 62.138 C 502 60.296, 495.858 46.501, 494.245 44.719 C 492.640 42.944, 492.641 42.780, 494.271 41.868 C 500.595 38.329, 500.445 22.449, 494.055 19.030 C 492.997 18.463, 486.243 18, 479.047 18 L 465.962 18 466.231 40.250 M 564.195 22.750 L 564.500 27.500 569.500 27.500 L 574.500 27.500 574.805 22.750 L 575.110 18 569.500 18 L 563.890 18 564.195 22.750 M 676.165 34.750 C 676.525 50.003, 676.767 51.866, 678.875 55.590 C 682.231 61.522, 685.352 63, 694.522 63 C 702.106 63, 702.298 62.937, 705.997 59.238 C 710.913 54.322, 712.150 48.380, 711.781 31.441 L 711.500 18.500 705.250 18.202 L 699 17.905 699 33.297 C 699 46.940, 698.792 48.878, 697.171 50.345 C 694.875 52.423, 692.595 52.452, 690.571 50.429 C 689.279 49.136, 689 46.121, 689 33.429 L 689 18 682.385 18 L 675.769 18 676.165 34.750 M 747.358 31.949 C 747.724 39.621, 748.301 46.620, 748.639 47.502 C 749.081 48.652, 750.278 49.020, 752.877 48.803 C 756.470 48.503, 756.506 48.454, 757.179 43 C 757.553 39.975, 758.174 33.112, 758.558 27.750 L 759.258 18 752.975 18 L 746.692 18 747.358 31.949 M 282 32 C 282 35.585, 282.256 36, 284.465 36 C 287.626 36, 289.505 32.812, 288 30 C 287.374 28.830, 285.906 28, 284.465 28 C 282.256 28, 282 28.415, 282 32 M 478 31.474 C 478 35.541, 479.196 36.346, 483.500 35.173 C 485.964 34.502, 486.500 33.833, 486.500 31.428 C 486.500 28.698, 486.212 28.479, 482.250 28.193 L 478 27.885 478 31.474 M 327.241 30.995 C 322.026 34.174, 320.008 38.441, 320.004 46.300 C 320 53.816, 321.473 57.654, 325.615 60.912 C 327.731 62.577, 329.685 63, 335.253 63 C 342.030 63, 342.349 62.886, 346.118 59.118 C 348.253 56.982, 350 54.789, 350 54.243 C 350 51.945, 339.814 51.315, 338 53.500 C 336.265 55.590, 333.269 55.372, 332.035 53.066 C 331.466 52.002, 331 50.877, 331 50.566 C 331 50.255, 335.275 50, 340.500 50 L 350 50 349.998 45.250 C 349.995 35.764, 343.790 28.997, 335.102 29.004 C 332.276 29.006, 329.242 29.774, 327.241 30.995 M 359.500 30.386 C 355.883 31.962, 354.376 33.655, 353.507 37.116 C 352.924 39.440, 353.198 39.790, 356.052 40.360 C 361.203 41.391, 363.745 41.108, 364.387 39.433 C 364.775 38.422, 365.939 37.979, 367.667 38.183 C 372.699 38.778, 371.083 40.668, 363.709 42.810 C 355.923 45.072, 353.573 46.828, 352.483 51.197 C 351.623 54.642, 353.609 60.720, 356.014 62.008 C 358.810 63.504, 367.272 63.199, 369.676 61.514 C 371.552 60.200, 371.863 60.200, 372.367 61.514 C 372.761 62.542, 374.412 63, 377.719 63 L 382.500 63 382.171 50.750 C 381.685 32.634, 379.314 29.004, 368 29.054 C 364.975 29.067, 361.150 29.667, 359.500 30.386 M 391 30.752 C 386.392 33.054, 384.362 38.537, 386.354 43.303 C 388.146 47.591, 389.546 48.596, 396.005 50.233 C 399.633 51.152, 401.607 52.197, 401.822 53.312 C 402.243 55.501, 397.196 55.675, 396.362 53.500 C 395.948 52.423, 394.264 52, 390.393 52 C 385.264 52, 385 52.126, 385 54.577 C 385 56.092, 386.205 58.359, 387.923 60.077 C 390.646 62.800, 391.371 63, 398.523 63 C 405.920 63, 406.324 62.876, 409.600 59.600 C 416.480 52.720, 412.843 42.999, 402.828 41.497 C 397.498 40.698, 395.490 39.635, 396.431 38.112 C 397.373 36.588, 398.575 36.718, 400.396 38.539 C 401.577 39.720, 403.104 39.922, 406.967 39.410 C 409.735 39.043, 412 38.307, 412 37.775 C 412 35.745, 408.568 31.124, 406.288 30.085 C 402.692 28.447, 394.937 28.785, 391 30.752 M 423 30.752 C 420.743 31.879, 418.675 34.098, 417.177 37 C 412.888 45.308, 415.784 58.758, 422.522 61.828 C 423.937 62.473, 428.043 63, 431.647 63 C 437.766 63, 438.425 62.775, 441.600 59.600 C 443.470 57.730, 445 55.532, 445 54.717 C 445 51.762, 435.763 51, 432.770 53.708 C 430.644 55.632, 427.752 54.564, 427.177 51.643 C 426.895 50.211, 428.083 50, 436.427 50 L 446 50 446 45.712 C 446 36.191, 439.332 29.003, 430.500 29.003 C 428.300 29.003, 424.925 29.790, 423 30.752 M 509.054 30.752 C 506.912 31.839, 504.705 34.202, 503.218 37 C 498.851 45.217, 501.740 58.738, 508.522 61.828 C 509.937 62.473, 514.043 63, 517.647 63 C 523.766 63, 524.425 62.775, 527.600 59.600 C 529.470 57.730, 531 55.532, 531 54.717 C 531 51.762, 521.763 51, 518.770 53.708 C 516.644 55.632, 513.752 54.564, 513.177 51.643 C 512.895 50.211, 514.083 50, 522.427 50 L 532 50 532 45.712 C 532 36.191, 525.332 29.003, 516.500 29.003 C 514.300 29.003, 510.950 29.790, 509.054 30.752 M 587 30.752 C 577.625 35.435, 576.226 52.744, 584.595 60.501 C 586.888 62.625, 588.252 63, 593.696 63 C 601.255 63, 605.325 61.206, 607.557 56.890 C 608.432 55.198, 608.966 53.633, 608.745 53.411 C 608.523 53.190, 606.232 52.719, 603.653 52.366 C 599.950 51.858, 598.554 52.094, 597.019 53.483 C 594.775 55.514, 592.604 54.997, 591.030 52.056 C 589.953 50.044, 590.146 50, 600.102 50 L 610.275 50 609.604 44.284 C 609.234 41.140, 608.144 37.203, 607.182 35.534 C 604.985 31.724, 599.700 29.003, 594.500 29.003 C 592.300 29.003, 588.925 29.790, 587 30.752 M 722.388 29.980 C 719.216 31.262, 716 35.896, 716 39.185 C 716 45.744, 718.665 48.191, 728.814 50.947 C 733.390 52.190, 734.026 54.254, 730.012 54.840 C 728.636 55.041, 727.316 54.529, 726.791 53.590 C 725.595 51.454, 716.192 51.337, 715.381 53.448 C 714.608 55.465, 717.847 60.609, 720.712 61.915 C 722.022 62.512, 726.175 63, 729.941 63 C 736.117 63, 737.093 62.716, 739.894 60.099 C 742.569 57.600, 743 56.503, 743 52.188 C 743 47.838, 742.601 46.842, 739.971 44.629 C 738.304 43.227, 735.267 41.797, 733.221 41.452 C 727.686 40.520, 726 39.956, 726 39.040 C 726 37.334, 729.353 37.010, 731.056 38.550 C 733.309 40.589, 742 39.613, 742 37.321 C 742 34.766, 740.024 32.064, 737.020 30.510 C 733.876 28.884, 725.822 28.592, 722.388 29.980 M 531.422 31.750 C 531.729 32.712, 534.159 40.025, 536.823 48 L 541.666 62.500 546.679 62.797 L 551.692 63.094 556.856 47.797 C 559.697 39.384, 562.016 31.938, 562.010 31.250 C 562.003 30.405, 560.245 30, 556.585 30 L 551.171 30 549.402 37.500 C 548.430 41.625, 547.349 45, 547 45 C 546.651 45, 545.570 41.625, 544.598 37.500 L 542.829 30 536.847 30 C 531.605 30, 530.934 30.216, 531.422 31.750 M 564 46.500 L 564 63 569.500 63 L 575 63 575 46.500 L 575 30 569.500 30 L 564 30 564 46.500 M 610.228 31.250 C 610.470 31.938, 612.656 39.361, 615.085 47.747 L 619.500 62.995 624.586 62.997 L 629.673 63 631.507 54.970 C 632.515 50.554, 633.651 47.292, 634.031 47.720 C 634.410 48.149, 635.550 51.783, 636.565 55.795 L 638.409 63.090 643.432 62.795 L 648.455 62.500 653.209 46.500 C 655.824 37.700, 657.972 30.387, 657.982 30.250 C 657.992 30.113, 655.557 30, 652.571 30 L 647.142 30 646.008 35.750 C 645.384 38.913, 644.543 42.578, 644.138 43.895 C 643.454 46.123, 643.325 46.019, 642.272 42.395 C 641.650 40.253, 640.636 36.565, 640.018 34.200 L 638.896 29.899 633.743 30.200 L 628.590 30.500 626.625 38.488 C 624.465 47.261, 624.236 47.126, 621.992 35.750 L 620.858 30 615.322 30 C 611.324 30, 609.909 30.347, 610.228 31.250 M 332.200 39.200 C 330.129 41.271, 330.867 42, 335.035 42 C 338.760 42, 338.988 41.846, 338 40 C 336.803 37.763, 334.021 37.379, 332.200 39.200 M 427.713 38.621 C 425.873 40.461, 427.176 42, 430.573 42 C 433.436 42, 434.081 41.652, 433.815 40.250 C 433.477 38.469, 429.047 37.286, 427.713 38.621 M 513.628 39.528 C 512.689 41.973, 512.721 42, 516.573 42 C 519.436 42, 520.081 41.652, 519.815 40.250 C 519.368 37.897, 514.473 37.325, 513.628 39.528 M 591.713 38.621 C 589.873 40.461, 591.176 42, 594.573 42 C 597.436 42, 598.081 41.652, 597.815 40.250 C 597.477 38.469, 593.047 37.286, 591.713 38.621 M 367.250 49.584 C 365.143 50.506, 364 51.708, 364 53.003 C 364 55.045, 366.396 55.672, 368.671 54.225 C 369.717 53.559, 371.739 47.881, 370.858 48.082 C 370.661 48.126, 369.038 48.803, 367.250 49.584 M 747 57 L 747 63 752.500 63 L 758 63 758 57 L 758 51 752.500 51 L 747 51 747 57" stroke="none" fill="#3470f5" fill-rule="evenodd"/></svg>