<svg xmlns="http://www.w3.org/2000/svg" width="100" height="100" viewBox="50 350 900 800"
    version="1.1">
    <path
        d="M 89.444 330.500 L 89.500 341.500 136 341.500 L 182.500 341.500 182.558 331 L 182.616 320.500 182.273 330.750 L 181.930 341 135.999 341 L 90.068 341 89.728 330.250 L 89.388 319.500 89.444 330.500 M 189.468 376 C 189.468 407.075, 189.594 419.788, 189.749 404.250 C 189.904 388.713, 189.904 363.288, 189.749 347.750 C 189.594 332.213, 189.468 344.925, 189.468 376 M 210.228 339.750 C 210.016 358.588, 210.474 362.279, 212.595 358.845 C 213.033 358.138, 212.870 357.962, 212.176 358.391 C 211.350 358.902, 210.963 353.727, 210.749 339.296 L 210.455 319.500 210.228 339.750 M 513.500 320.925 L 523.500 321.500 523.772 340.750 C 523.921 351.337, 524.371 359.986, 524.772 359.968 C 525.907 359.919, 529 357.370, 529 356.485 C 529 356.048, 528.110 356.496, 527.022 357.480 C 525.059 359.257, 525.042 359.127, 524.772 339.885 L 524.500 320.500 514 320.425 L 503.500 320.350 513.500 320.925 M 815 320.645 C 823.369 321.383, 832.778 321.440, 832.349 320.750 C 832.092 320.337, 827.296 320.076, 821.691 320.168 C 816.086 320.261, 813.075 320.475, 815 320.645 M 503.467 377 C 503.467 407.525, 503.594 420.012, 503.749 404.750 C 503.905 389.487, 503.905 364.512, 503.749 349.250 C 503.594 333.987, 503.467 346.475, 503.467 377 M 599.699 329.634 C 599.315 330.019, 599 335.185, 599 341.114 L 599 351.895 593.750 352.198 L 588.500 352.500 588.440 362.500 L 588.379 372.500 588.726 362.750 L 589.072 353 594.536 353 L 600 353 600 341.500 L 600 330 609.967 330 L 619.934 330 620.217 341.250 L 620.500 352.500 632 352.548 L 643.500 352.595 632.282 352.266 L 621.065 351.937 620.782 340.719 L 620.500 329.500 610.449 329.217 C 604.922 329.062, 600.084 329.249, 599.699 329.634 M 147.441 379 C 147.441 394.675, 147.579 401.087, 147.748 393.250 C 147.917 385.412, 147.917 372.587, 147.748 364.750 C 147.579 356.912, 147.441 363.325, 147.441 379 M 276.651 352.750 C 276.394 353.163, 279.405 353.377, 283.342 353.227 C 296.205 352.736, 297.690 352.339, 287.309 352.168 C 281.704 352.076, 276.908 352.337, 276.651 352.750 M 334.287 352.740 C 337.469 352.939, 342.419 352.937, 345.287 352.736 C 348.154 352.535, 345.550 352.372, 339.500 352.374 C 333.450 352.376, 331.104 352.541, 334.287 352.740 M 363.456 353.253 C 363.192 353.942, 363.099 371.829, 363.250 393.003 L 363.524 431.500 363.762 392.214 L 364 352.928 373.750 353.214 L 383.500 353.500 383.810 357.250 C 383.981 359.313, 384.453 361, 384.860 361 C 386.001 361, 384.887 353.595, 383.621 352.765 C 381.602 351.442, 363.988 351.868, 363.456 353.253 M 859.655 352.750 C 859.400 353.163, 864.998 353.500, 872.095 353.500 C 879.193 353.500, 885 353.163, 885 352.750 C 885 352.337, 879.402 352, 872.559 352 C 865.716 352, 859.909 352.337, 859.655 352.750 M 124.423 381.500 C 124.424 393.050, 124.570 397.638, 124.747 391.696 C 124.924 385.753, 124.923 376.303, 124.745 370.696 C 124.567 365.088, 124.422 369.950, 124.423 381.500 M 538.350 370.765 C 537.718 371.169, 540.294 371.502, 544.076 371.505 C 547.858 371.507, 550.175 371.201, 549.226 370.825 C 546.885 369.897, 539.771 369.858, 538.350 370.765 M 767.115 370.908 C 766.262 371.448, 767.606 371.602, 770.615 371.310 C 777.388 370.651, 778.332 370.170, 773 370.094 C 770.525 370.059, 767.877 370.425, 767.115 370.908 M 599.425 393 C 599.425 404.825, 599.569 409.663, 599.746 403.750 C 599.923 397.837, 599.923 388.163, 599.746 382.250 C 599.569 376.337, 599.425 381.175, 599.425 393 M 620.196 389.691 C 620.088 399.696, 620.337 408.092, 620.750 408.348 C 621.163 408.605, 621.382 403.344, 621.239 396.657 C 620.749 373.860, 620.392 371.478, 620.196 389.691 M 584.173 382 C 584.141 383.375, 584.488 386.300, 584.943 388.500 C 585.473 391.066, 585.791 391.604, 585.827 390 C 585.859 388.625, 585.512 385.700, 585.057 383.500 C 584.527 380.934, 584.209 380.396, 584.173 382 M 695 381 L 690.500 381.700 695.191 381.850 C 697.771 381.932, 700.160 381.550, 700.500 381 C 700.840 380.450, 700.754 380.068, 700.309 380.150 C 699.864 380.233, 697.475 380.615, 695 381 M 242.432 407 C 242.432 420.475, 242.574 425.988, 242.747 419.250 C 242.920 412.512, 242.920 401.488, 242.747 394.750 C 242.574 388.012, 242.432 393.525, 242.432 407 M 469.204 407.691 C 469.092 420.446, 469.337 431.091, 469.750 431.347 C 470.163 431.604, 470.384 424.768, 470.243 416.157 C 469.767 387.254, 469.409 384.332, 469.204 407.691 M 437.430 409 C 437.430 421.925, 437.573 427.212, 437.747 420.750 C 437.921 414.288, 437.921 403.712, 437.747 397.250 C 437.573 390.788, 437.430 396.075, 437.430 409 M 210.428 410 C 210.428 422.375, 210.571 427.438, 210.747 421.250 C 210.922 415.063, 210.922 404.938, 210.747 398.750 C 210.571 392.563, 210.428 397.625, 210.428 410 M 580.074 413.306 C 579.591 414.575, 577.985 417.162, 576.504 419.056 C 574.061 422.180, 574.135 422.147, 577.300 418.705 C 579.220 416.617, 581.021 414.030, 581.302 412.955 C 582.009 410.249, 581.142 410.497, 580.074 413.306 M 230.518 515.971 C 230.188 516.506, 226.806 524.454, 223.003 533.635 C 219.200 542.816, 215.506 550.697, 214.794 551.148 C 214.082 551.600, 211.250 551.971, 208.500 551.973 C 200.028 551.980, 178.571 554.245, 177.250 555.273 C 174.584 557.346, 176.349 560.007, 185.750 568.091 C 191.113 572.702, 196.625 577.461, 198 578.666 C 199.375 579.872, 201.475 581.698, 202.666 582.724 C 204.758 584.525, 204.784 584.796, 203.421 590.545 C 199.079 608.855, 197 618.793, 197 621.243 C 197 626.023, 201.024 624.767, 217 615 C 225.097 610.050, 232.346 606.004, 233.111 606.010 C 233.875 606.015, 241.192 610.065, 249.372 615.010 C 264.531 624.174, 268.380 625.529, 269.472 622.088 C 270.030 620.331, 266.750 604.391, 263.398 592.568 C 262.629 589.856, 262 586.857, 262 585.905 C 262 584.950, 266.377 580.430, 271.750 575.837 C 277.113 571.252, 282.400 566.666, 283.500 565.646 C 284.600 564.626, 286.512 563.111, 287.750 562.280 C 289.209 561.301, 290 559.762, 290 557.904 C 290 555.738, 289.451 554.923, 287.750 554.568 C 284.535 553.897, 263.559 552.049, 256.750 551.837 C 253.588 551.738, 251 551.617, 251 551.567 C 251 551.518, 248.957 546.771, 246.460 541.018 C 243.963 535.266, 241.780 529.871, 241.608 529.030 C 240.858 525.359, 235.999 516.213, 234.490 515.635 C 232.200 514.756, 231.218 514.839, 230.518 515.971 M 361.304 515.791 C 360.646 516.209, 356.927 524.167, 353.040 533.475 C 349.153 542.783, 345.416 550.752, 344.736 551.184 C 344.056 551.616, 341.096 551.976, 338.157 551.985 C 329.231 552.010, 308.581 554.192, 307.250 555.251 C 304.468 557.463, 306.563 560.137, 320.431 572.076 C 328.729 579.220, 334.680 585.062, 334.435 585.823 C 332.921 590.506, 327 618.507, 327 620.981 C 327 623.572, 327.372 624, 329.622 624 C 331.841 624, 350.644 613.472, 360.193 606.883 L 362.886 605.024 378.546 614.512 C 393.833 623.774, 398.474 625.535, 399.633 622.514 C 399.947 621.696, 398.617 614.384, 396.678 606.264 C 391.135 583.054, 391.174 585.091, 396.181 580.461 C 398.557 578.265, 402.507 574.901, 404.961 572.984 C 407.414 571.068, 410.789 568.222, 412.461 566.660 C 414.132 565.098, 416.512 563.134, 417.750 562.295 C 419.205 561.309, 420 559.758, 420 557.904 C 420 555.737, 419.451 554.924, 417.750 554.572 C 413.509 553.693, 393.502 551.995, 387.419 551.997 C 380.285 552, 381.643 553.833, 372.970 532.500 C 366.404 516.349, 364.566 513.717, 361.304 515.791 M 490.708 516.771 C 489.826 517.744, 487.095 523.482, 484.639 529.521 C 474.876 553.521, 476.095 551.532, 471 551.788 C 456.827 552.500, 438.328 554.400, 437.250 555.254 C 434.432 557.488, 436.437 560.124, 449.250 571.033 C 456.538 577.238, 463.041 582.806, 463.701 583.407 C 464.901 584.498, 464.013 589.136, 458.037 612.969 C 455.971 621.212, 456.546 624.026, 460.285 623.962 C 461.503 623.941, 469.418 619.712, 477.874 614.564 L 493.248 605.205 504.874 612.185 C 511.268 616.023, 518.148 620.286, 520.162 621.657 C 522.484 623.238, 524.862 624.031, 526.662 623.825 C 529.192 623.535, 529.493 623.120, 529.434 620 C 529.398 618.075, 527.868 610.425, 526.034 603 C 524.201 595.575, 522.500 588.314, 522.254 586.865 C 521.856 584.518, 523.343 582.935, 535.874 572.365 C 548.621 561.613, 549.920 560.219, 549.720 557.500 L 549.500 554.500 538 553.351 C 531.675 552.719, 523.350 552.150, 519.500 552.086 C 515.650 552.022, 512.009 551.639, 511.409 551.235 C 510.386 550.547, 509.144 547.720, 500.314 526 C 497.232 518.418, 494.948 515, 492.964 515 C 492.604 515, 491.589 515.797, 490.708 516.771 M 620.637 516.506 C 619.809 517.334, 618.819 519.022, 618.438 520.256 C 616.698 525.889, 605.749 550.539, 604.688 551.214 C 604.035 551.629, 600.575 552.010, 597 552.060 C 588.235 552.182, 568.802 554.305, 567.250 555.309 C 564.315 557.208, 566.519 560.144, 579.102 571.096 C 586.307 577.368, 592.791 582.969, 593.510 583.543 C 594.567 584.387, 594.078 587.630, 590.948 600.543 C 588.820 609.319, 587.061 618.188, 587.040 620.250 C 587.002 623.777, 587.183 624, 590.067 624 C 591.797 624, 594.562 622.911, 596.411 621.500 C 598.214 620.125, 599.938 619, 600.242 619 C 600.546 619, 605.830 615.874, 611.984 612.054 L 623.172 605.108 638.666 614.554 C 654.433 624.166, 658.363 625.582, 659.482 622.056 C 659.822 620.986, 658.540 613.674, 656.633 605.806 C 650.982 582.480, 650.884 585.003, 657.660 579.353 C 679.342 561.271, 682.187 558.017, 678.750 555.232 C 677.702 554.383, 660.985 552.622, 645.508 551.730 C 641.079 551.475, 639.912 549.892, 635.022 537.500 C 633.720 534.200, 631.382 528.676, 629.827 525.225 C 628.272 521.774, 627 518.527, 627 518.010 C 627 517.164, 623.864 515, 622.637 515 C 622.365 515, 621.465 515.678, 620.637 516.506 M 748.326 520.793 C 746.936 523.932, 743.596 531.872, 740.903 538.439 C 738.210 545.005, 735.443 550.736, 734.753 551.174 C 734.064 551.611, 731.250 551.971, 728.500 551.973 C 725.750 551.975, 717.875 552.500, 711 553.139 C 689.559 555.131, 689.098 554.003, 723.188 583 C 725.078 584.607, 724.925 585.498, 718.037 612.969 C 715.995 621.116, 716.544 624, 720.137 624 C 721.274 624, 728.887 619.950, 737.054 615 C 745.222 610.050, 752.555 606, 753.351 606 C 754.147 606, 761.365 610.050, 769.391 615 C 783.797 623.885, 788.451 625.594, 789.661 622.440 C 790.224 620.973, 788.127 610.778, 783.866 594.268 C 782.840 590.291, 782 586.405, 782 585.633 C 782 584.353, 787.372 579.331, 801.930 567 C 804.852 564.525, 807.863 562.140, 808.621 561.700 C 810.342 560.702, 810.424 556.583, 808.750 555.249 C 807.729 554.435, 791.539 552.749, 774.131 551.643 C 770.473 551.411, 770.600 551.648, 759.870 525 C 756.435 516.469, 756.181 516.113, 753.102 515.520 C 751.183 515.150, 750.480 515.927, 748.326 520.793 M 617.422 699 C 617.422 710.275, 617.568 714.888, 617.746 709.250 C 617.924 703.612, 617.924 694.388, 617.746 688.750 C 617.568 683.112, 617.422 687.725, 617.422 699 M 863.422 699 C 863.422 710.275, 863.568 714.888, 863.746 709.250 C 863.924 703.612, 863.924 694.388, 863.746 688.750 C 863.568 683.112, 863.422 687.725, 863.422 699 M 113.374 681.467 C 113.065 682.274, 113.043 683.511, 113.327 684.217 C 113.610 684.923, 113.878 684.503, 113.921 683.284 C 113.997 681.159, 114.442 681.054, 124.750 680.746 L 135.500 680.425 124.719 680.212 C 116.026 680.041, 113.828 680.284, 113.374 681.467 M 300.250 680.735 C 302.863 680.941, 307.137 680.941, 309.750 680.735 C 312.363 680.529, 310.225 680.360, 305 680.360 C 299.775 680.360, 297.637 680.529, 300.250 680.735 M 588.296 680.744 C 592.583 680.932, 599.333 680.931, 603.296 680.742 C 607.258 680.552, 603.750 680.399, 595.500 680.400 C 587.250 680.401, 584.008 680.556, 588.296 680.744 M 200 687.383 C 200 688.926, 199.294 689.951, 198 690.290 C 195.428 690.962, 195.404 694.031, 197.965 694.701 C 199.717 695.159, 199.965 696.261, 200.256 704.858 L 200.581 714.500 200.791 704.656 C 200.984 695.562, 200.848 694.773, 199 694.290 C 197.900 694.002, 197 693.197, 197 692.500 C 197 691.803, 197.900 690.998, 199 690.710 C 200.351 690.357, 201 689.346, 201 687.594 C 201 686.167, 200.775 685, 200.500 685 C 200.225 685, 200 686.073, 200 687.383 M 597.411 702 C 597.411 711.625, 597.561 715.563, 597.745 710.750 C 597.928 705.938, 597.928 698.063, 597.745 693.250 C 597.561 688.438, 597.411 692.375, 597.411 702 M 777 687.883 C 777 688.926, 776.107 690, 775 690.290 C 772.428 690.962, 772.404 694.031, 774.965 694.701 C 776.717 695.159, 776.965 696.261, 777.256 704.858 L 777.581 714.500 777.791 704.656 C 777.984 695.562, 777.848 694.773, 776 694.290 C 774.900 694.002, 774 693.197, 774 692.500 C 774 691.803, 774.900 690.998, 776 690.710 C 777.710 690.263, 779.067 686, 777.500 686 C 777.225 686, 777 686.848, 777 687.883 M 651.429 691.325 C 651.149 692.054, 651.070 696.891, 651.253 702.075 L 651.585 711.500 651.792 701.320 C 651.990 691.634, 652.109 691.118, 654.250 690.706 L 656.500 690.272 654.219 690.136 C 652.964 690.061, 651.708 690.596, 651.429 691.325 M 884.870 690.721 C 887.197 691.162, 887.170 691.245, 883.370 695.335 L 879.500 699.500 883.750 695.547 C 888.723 690.922, 888.992 689.951, 885.250 690.136 C 882.720 690.261, 882.689 690.308, 884.870 690.721 M 394.395 705.500 C 394.396 713.200, 394.553 716.218, 394.743 712.206 C 394.934 708.195, 394.932 701.895, 394.741 698.206 C 394.549 694.518, 394.393 697.800, 394.395 705.500 M 244.370 709 C 244.370 714.775, 244.535 717.138, 244.737 714.250 C 244.939 711.362, 244.939 706.638, 244.737 703.750 C 244.535 700.862, 244.370 703.225, 244.370 709 M 357.370 709 C 357.370 714.775, 357.535 717.138, 357.737 714.250 C 357.939 711.362, 357.939 706.638, 357.737 703.750 C 357.535 700.862, 357.370 703.225, 357.370 709 M 425.365 709.500 C 425.368 715, 425.536 717.122, 425.738 714.216 C 425.941 711.311, 425.939 706.811, 425.734 704.216 C 425.528 701.622, 425.363 704, 425.365 709.500 M 550.365 709.500 C 550.368 715, 550.536 717.122, 550.738 714.216 C 550.941 711.311, 550.939 706.811, 550.734 704.216 C 550.528 701.622, 550.363 704, 550.365 709.500 M 724.365 709.500 C 724.368 715, 724.536 717.122, 724.738 714.216 C 724.941 711.311, 724.939 706.811, 724.734 704.216 C 724.528 701.622, 724.363 704, 724.365 709.500 M 821.365 709.500 C 821.368 715, 821.536 717.122, 821.738 714.216 C 821.941 711.311, 821.939 706.811, 821.734 704.216 C 821.528 701.622, 821.363 704, 821.365 709.500 M 409.343 709.500 C 409.346 713.900, 409.522 715.576, 409.733 713.224 C 409.945 710.872, 409.942 707.272, 409.727 705.224 C 409.512 703.176, 409.339 705.100, 409.343 709.500 M 534.328 708.500 C 534.333 712.350, 534.513 713.802, 534.730 711.728 C 534.946 709.653, 534.943 706.503, 534.722 704.728 C 534.501 702.952, 534.324 704.650, 534.328 708.500 M 690.355 710.500 C 690.352 715.450, 690.521 717.601, 690.731 715.280 C 690.940 712.959, 690.943 708.909, 690.736 706.280 C 690.530 703.651, 690.358 705.550, 690.355 710.500 M 705.310 709.500 C 705.315 712.800, 705.502 714.029, 705.725 712.232 C 705.947 710.435, 705.943 707.735, 705.715 706.232 C 705.486 704.729, 705.304 706.200, 705.310 709.500 M 258.320 713 C 258.320 716.575, 258.502 718.038, 258.723 716.250 C 258.945 714.462, 258.945 711.538, 258.723 709.750 C 258.502 707.962, 258.320 709.425, 258.320 713"
        stroke="none" fill="#fabb04" fill-rule="evenodd" />
    <path
        d="M 90 330.500 L 90 341 136 341 L 182 341 182 330.500 L 182 320 136 320 L 90 320 90 330.500 M 190 376 L 190 432 199.899 432 L 209.798 432 210.149 407.176 L 210.500 382.352 213.303 378.118 C 216.162 373.798, 222.786 369.976, 227.333 370.022 C 231.155 370.061, 237.625 373.665, 240.099 377.133 C 242.462 380.447, 242.505 380.905, 242.812 406.284 L 243.123 432.069 253.312 431.784 L 263.500 431.500 263.767 405.164 C 264.013 380.823, 263.874 378.291, 261.923 371.741 C 258.020 358.635, 247.390 351, 233.045 351 C 226.144 351, 220.094 353.036, 214.809 357.136 C 212.778 358.711, 210.866 360, 210.559 360 C 210.251 360, 210 351, 210 340 L 210 320 200 320 L 190 320 190 376 M 504 376.464 L 504 432 513.500 432 L 523 432 523 428 C 523 425.800, 523.174 424, 523.386 424 C 523.598 424, 526.618 425.900, 530.096 428.223 C 536.272 432.347, 536.649 432.455, 546.148 432.837 C 555.487 433.212, 556.144 433.097, 562.619 429.942 C 579.082 421.922, 587.466 404.457, 584.333 384.707 C 583.654 380.421, 582.068 374.796, 580.810 372.207 C 578.003 366.430, 567.031 355.285, 563.265 354.385 C 561.744 354.022, 559.868 353.224, 559.097 352.612 C 558.287 351.971, 553.631 351.500, 548.097 351.500 C 537.745 351.500, 532.803 353.020, 528.114 357.646 C 526.801 358.941, 525.348 360, 524.885 360 C 524.422 360, 523.921 351.337, 523.772 340.750 L 523.500 321.500 513.750 321.214 L 504 320.928 504 376.464 M 812 376.500 L 812 432.070 822.250 431.785 L 832.500 431.500 833 418.148 L 833.500 404.797 837.473 400.898 C 839.658 398.754, 841.908 397.001, 842.473 397.002 C 843.038 397.004, 845.300 400.225, 847.500 404.160 C 849.700 408.095, 851.972 411.807, 852.549 412.408 C 853.125 413.008, 855.121 416.200, 856.983 419.500 C 858.845 422.800, 860.633 425.725, 860.957 426 C 861.281 426.275, 862.334 427.738, 863.296 429.250 C 865.044 431.996, 865.063 432, 876.856 432 C 883.352 432, 888.945 431.721, 889.286 431.381 C 889.626 431.040, 889.364 430.196, 888.702 429.503 C 888.041 428.811, 886.942 427.402, 886.261 426.373 C 885.579 425.343, 881.304 418.929, 876.761 412.120 C 872.217 405.312, 866.954 397.212, 865.064 394.120 C 863.175 391.029, 861.067 387.935, 860.380 387.244 C 859.693 386.553, 858.831 385.042, 858.464 383.886 C 857.749 381.633, 858.069 381.243, 875 363.745 C 879.675 358.914, 883.650 354.520, 883.833 353.980 C 884.039 353.376, 879.588 353, 872.225 353 L 860.283 353 848.892 365.136 C 842.626 371.812, 836.600 378.138, 835.500 379.195 C 833.502 381.115, 833.499 381.085, 833 351.308 L 832.500 321.500 822.250 321.215 L 812 320.930 812 376.500 M 600 341.500 L 600 353 594.500 353 L 589 353 589 362.500 L 589 372 594.500 372 L 600 372 600 392.557 C 600 404.704, 600.469 414.978, 601.147 417.670 C 602.209 421.885, 605.627 426.260, 611.533 430.962 C 614.441 433.277, 630.568 433.637, 637.249 431.535 C 645.600 428.909, 645.571 428.946, 643.564 423.348 C 642.608 420.682, 641.305 417.038, 640.668 415.250 C 639.431 411.777, 638.645 411.550, 632.657 412.939 C 627.910 414.041, 623.702 412.721, 621.566 409.460 C 620.295 407.521, 620 403.766, 620 389.535 L 620 372 632 372 L 644 372 644 362.532 L 644 353.063 632.250 352.782 L 620.500 352.500 620.217 341.250 L 619.934 330 609.967 330 L 600 330 600 341.500 M 139 351.654 C 135.077 352.952, 128.891 356.488, 126.977 358.525 C 124.902 360.734, 124.859 361.418, 125.175 387.144 C 125.394 404.873, 125.882 414.155, 126.667 415.500 C 127.310 416.600, 129.071 419.975, 130.582 423 C 135.666 433.179, 135.641 433.142, 136.736 431.766 C 139.421 428.389, 144.950 416.460, 145.915 411.960 C 146.548 409.007, 147 395.266, 147 378.951 L 147 351 143.750 351.079 C 141.963 351.122, 139.825 351.381, 139 351.654 M 398.500 351.827 C 393.544 353.666, 390.301 355.597, 387.806 358.195 C 386.325 359.738, 384.890 361, 384.617 361 C 384.344 361, 383.981 359.313, 383.810 357.250 L 383.500 353.500 373.750 353.214 L 364 352.928 364 392.499 L 364 432.070 374.250 431.785 L 384.500 431.500 385 405.820 C 385.466 381.906, 385.642 379.947, 387.560 377.320 C 390.067 373.889, 397.410 370.080, 401.500 370.089 C 405.544 370.098, 410.866 372.882, 413.412 376.321 C 415.370 378.966, 415.531 380.765, 416 405.321 L 416.500 431.500 426.750 431.785 L 437 432.070 437 409.713 C 437 391.741, 437.319 386.390, 438.628 382.428 C 443.151 368.741, 459.173 365.753, 466.743 377.185 L 469.500 381.349 470 406.424 L 470.500 431.500 480.500 431.500 L 490.500 431.500 490.497 403 C 490.494 370.626, 490.066 368.282, 482.702 360.293 C 476.422 353.480, 471.391 351.590, 459.500 351.576 C 451.882 351.568, 448.785 351.973, 446.500 353.276 C 444.850 354.218, 443.067 354.990, 442.538 354.994 C 442.009 354.997, 439.647 356.893, 437.291 359.206 L 433.005 363.411 429.253 359.812 C 423.110 353.919, 417.643 351.695, 408.500 351.370 C 404.100 351.213, 399.600 351.419, 398.500 351.827 M 675.500 351.633 C 671.660 352.650, 661.492 356.433, 660.500 357.214 C 659.950 357.647, 658.375 358.891, 657 359.980 C 655.480 361.183, 654.892 362.261, 655.500 362.730 C 656.050 363.153, 657.834 366.087, 659.465 369.250 C 661.096 372.413, 662.671 374.995, 662.965 374.988 C 663.259 374.981, 665.525 373.808, 668 372.380 C 671.479 370.373, 674.345 369.665, 680.631 369.258 C 690.890 368.595, 694.801 369.333, 698.317 372.593 C 700.449 374.570, 701.040 375.936, 700.806 378.343 L 700.500 381.500 687.500 382.740 C 665.535 384.835, 658.027 388.466, 653.046 399.399 C 649.141 407.972, 651.580 419.669, 658.624 426.145 C 665.209 432.199, 677.386 434.822, 688.070 432.489 C 691.625 431.713, 701 426.113, 701 424.766 C 701 424.345, 701.423 424, 701.940 424 C 702.456 424, 703.019 425.688, 703.190 427.750 L 703.500 431.500 713.306 431.787 L 723.112 432.074 722.789 402.787 C 722.478 374.525, 722.385 373.330, 720.139 368.643 C 717.858 363.882, 709.685 355.006, 707.571 354.994 C 706.982 354.990, 705.150 354.263, 703.500 353.377 C 700.464 351.747, 679.903 350.466, 675.500 351.633 M 763.500 351.631 C 754.419 354.046, 749.251 356.783, 743.922 361.997 C 732.527 373.147, 728.157 389.860, 732.917 404.079 C 737.129 416.659, 742.083 422.714, 753.286 428.970 C 759.449 432.413, 759.603 432.441, 772.113 432.470 C 784.538 432.500, 784.824 432.449, 791.327 429.085 C 794.957 427.207, 799.381 424.171, 801.157 422.338 L 804.387 419.005 798.944 414.076 C 791.374 407.221, 789.478 406.271, 787.260 408.216 C 783.411 411.591, 778.547 413.250, 772.500 413.250 C 762.319 413.250, 756.507 408.695, 753.503 398.364 C 751.962 393.061, 751.969 392.287, 753.615 386.102 C 756.999 373.382, 768.464 366.953, 779.524 371.574 C 781.596 372.440, 783.936 373.793, 784.724 374.581 C 788.408 378.265, 789.347 378.058, 796.529 371.976 C 800.345 368.744, 803.606 365.681, 803.777 365.168 C 803.948 364.656, 802.155 362.728, 799.794 360.883 C 797.432 359.038, 794.905 356.960, 794.179 356.264 C 793.452 355.569, 792.327 354.997, 791.679 354.994 C 791.030 354.990, 789.150 354.274, 787.500 353.402 C 784.458 351.795, 767.570 350.548, 763.500 351.631 M 276.667 353.667 C 276.300 354.033, 276 366.746, 276.001 381.917 C 276.002 413.016, 276.388 415.185, 283.418 423.595 C 288.866 430.114, 295.875 433.083, 305.865 433.105 C 314.246 433.123, 319 432.322, 319 430.892 C 319 430.401, 319.498 430, 320.106 430 C 320.714 430, 322.964 428.612, 325.106 426.916 L 329 423.832 329 427.916 L 329 432 339.500 432 L 350 432 350 392.500 L 350 353 339.562 353 L 329.125 353 328.812 378.250 C 328.508 402.840, 328.439 403.585, 326.171 406.765 C 322.953 411.277, 319.105 413.003, 312.300 412.985 C 305.032 412.967, 302.143 411.523, 299.288 406.481 C 297.117 402.649, 297.032 401.573, 297.016 377.750 L 297 353 287.167 353 C 281.758 353, 277.033 353.300, 276.667 353.667 M 536.500 371.497 C 531.068 373.912, 527.099 378.398, 525.002 384.494 C 522.515 391.723, 522.513 393.181, 524.983 400.014 C 528.741 410.413, 537.855 415.297, 549.029 412.900 C 558.861 410.792, 564 403.414, 564 391.405 C 564 387.135, 563.577 384, 563 384 C 562.450 384, 562 383.341, 562 382.535 C 562 380.121, 555.799 373.814, 551.509 371.865 C 546.848 369.748, 540.770 369.599, 536.500 371.497 M 694 395.027 C 681.717 397.102, 679.059 397.822, 676.223 399.841 C 669.446 404.667, 671.293 413.577, 679.771 416.956 C 682.572 418.073, 683.839 418.010, 688.582 416.518 C 698.005 413.554, 701.953 407.880, 701.989 397.250 C 702.001 393.688, 701.974 393.680, 694 395.027 M 618 699 C 618 718.333, 618.067 719, 620 719 C 621.867 719, 622 718.333, 622 708.955 C 622 699.622, 622.174 698.735, 624.455 696.455 C 627.896 693.014, 633.144 693.096, 635.927 696.635 C 637.706 698.896, 638 700.669, 638 709.135 C 638 718.333, 638.135 719, 640 719 C 641.874 719, 642 718.333, 642 708.450 C 642 701.275, 641.544 697.019, 640.575 695.145 C 639.002 692.103, 635.253 690, 631.403 690 C 628.427 690, 623.389 692.439, 622.669 694.229 C 622.388 694.928, 622.122 691.788, 622.079 687.250 C 622.007 679.693, 621.832 679, 620 679 C 618.067 679, 618 679.667, 618 699 M 739 699 C 739 718.333, 739.067 719, 741 719 C 742.485 719, 743 718.333, 743 716.411 L 743 713.822 746.077 716.411 C 748.393 718.360, 750.270 719, 753.672 719 C 761.788 719, 767.003 713.246, 766.996 704.300 C 766.986 691.093, 752.138 684.984, 744.282 694.954 C 743.299 696.202, 743.057 694.811, 743.032 687.750 C 743.002 679.677, 742.845 679, 741 679 C 739.067 679, 739 679.667, 739 699 M 864 699 C 864 718.333, 864.067 719, 866 719 C 867.650 719, 868 718.333, 868 715.187 C 868 712.299, 868.692 710.711, 870.854 708.640 L 873.707 705.906 878.604 712.408 C 882.029 716.956, 884.176 718.922, 885.750 718.954 C 886.987 718.979, 888 718.761, 888 718.468 C 888 718.176, 885.464 714.567, 882.363 710.448 C 875.999 701.992, 875.857 703.425, 883.920 694.750 L 887.406 691 884.794 691 C 882.810 691, 880.481 692.865, 875.113 698.750 L 868.045 706.500 868.023 692.750 C 868.001 679.674, 867.902 679, 866 679 C 864.067 679, 864 679.667, 864 699 M 169.014 681.752 C 163.055 684.740, 161.231 691.481, 165.062 696.352 C 166.528 698.216, 169.563 699.717, 175.559 701.546 C 185.137 704.468, 186.947 706.300, 184.969 711.075 C 182.804 716.301, 173.335 716.842, 166.930 712.107 C 164.547 710.344, 164.022 710.269, 162.969 711.538 C 160.019 715.092, 169.618 719.528, 178.642 718.780 C 183.523 718.375, 184.756 717.837, 187.281 715.012 C 189.786 712.208, 190.147 711.129, 189.697 707.781 C 188.985 702.472, 186.697 700.244, 180.074 698.411 C 171.600 696.065, 169.014 694.895, 167.962 692.929 C 166.516 690.226, 166.765 689.144, 169.455 686.455 C 172.512 683.397, 177.544 683.216, 182.944 685.971 C 186.404 687.737, 186.872 687.776, 187.421 686.345 C 188.282 684.102, 186.400 682.205, 182.142 681.023 C 176.852 679.553, 172.967 679.769, 169.014 681.752 M 390 682.570 C 390 684.662, 390.418 685.080, 392.250 684.820 C 393.696 684.614, 394.614 683.696, 394.820 682.250 C 395.080 680.418, 394.662 680, 392.570 680 C 390.477 680, 390 680.477, 390 682.570 M 113.625 684.125 C 112.675 688.874, 112.879 699.807, 113.929 700.456 C 114.440 700.772, 116.829 700.503, 119.238 699.859 C 126.825 697.830, 133 701.054, 133 707.045 C 133 714.234, 123.725 717.465, 116.286 712.868 C 113.193 710.956, 112.678 710.893, 111.309 712.262 C 109.941 713.631, 110.243 714.058, 114.229 716.394 C 119.389 719.418, 126.411 719.873, 131.033 717.483 C 138.221 713.766, 139.045 701.880, 132.416 697.537 C 129.231 695.450, 123.013 694.644, 119.750 695.896 L 117 696.950 117 691.013 L 117 685.075 126.239 684.788 C 134.107 684.543, 135.527 684.240, 135.812 682.750 C 136.114 681.170, 135.086 681, 125.198 681 L 114.250 681 113.625 684.125 M 295.228 699.750 C 295.489 717.743, 295.581 718.500, 297.500 718.500 C 299.289 718.500, 299.531 717.735, 299.794 711.250 L 300.088 704 305.348 704 L 310.609 704 316.054 711.472 C 320.004 716.891, 322.118 718.952, 323.750 718.972 C 324.988 718.987, 326 718.703, 326 718.339 C 326 717.975, 323.547 714.419, 320.549 710.435 L 315.097 703.192 317.634 702.556 C 326.204 700.405, 327.775 687.252, 320.010 682.665 C 317.836 681.380, 314.651 681, 306.074 681 L 294.956 681 295.228 699.750 M 580.187 682.750 C 580.454 684.154, 581.754 684.559, 586.760 684.798 L 593 685.095 593 702.048 C 593 718.333, 593.079 719, 595 719 C 596.922 719, 597 718.333, 597 702 L 597 685 603.500 685 C 609.333 685, 610 684.795, 610 683 C 610 681.088, 609.333 681, 594.927 681 C 581.111 681, 579.881 681.146, 580.187 682.750 M 200.894 683.250 C 200.836 683.938, 200.873 685.770, 200.977 687.322 C 201.118 689.430, 200.639 690.282, 199.083 690.689 C 196.433 691.382, 196.382 693.605, 199 694.290 C 200.839 694.771, 201 695.654, 201 705.251 C 201 717.420, 201.900 719, 208.829 719 C 212.379 719, 213 718.692, 213 716.933 C 213 715.334, 212.555 715.006, 211.038 715.488 C 209.959 715.831, 208.159 715.620, 207.038 715.020 C 205.197 714.035, 205 712.968, 205 703.965 L 205 694 209.500 694 C 212.833 694, 214 693.611, 214 692.500 C 214 691.389, 212.833 691, 209.500 691 L 205 691 205 686.500 C 205 682.667, 204.704 682, 203 682 C 201.900 682, 200.952 682.563, 200.894 683.250 M 369 686.500 C 369 690.333, 368.704 691, 367 691 C 365.889 691, 365 691.667, 365 692.500 C 365 693.333, 365.889 694, 367 694 C 368.873 694, 369 694.667, 369 704.500 C 369 713.760, 369.243 715.243, 371.055 717.055 C 373.776 719.776, 381.294 719.494, 381.834 716.650 C 382.132 715.078, 381.740 714.898, 379.216 715.453 C 374.150 716.565, 373 714.341, 373 703.429 L 373 694 377.500 694 C 380.833 694, 382 693.611, 382 692.500 C 382 691.389, 380.833 691, 377.500 691 L 373 691 373 686.500 C 373 682.667, 372.704 682, 371 682 C 369.296 682, 369 682.667, 369 686.500 M 777.818 682.515 C 777.496 682.837, 777.447 684.684, 777.708 686.620 C 778.104 689.563, 777.839 690.229, 776.091 690.686 C 773.434 691.381, 773.378 693.604, 776 694.290 C 777.839 694.771, 778 695.654, 778 705.251 C 778 717.370, 778.914 719, 785.712 719 C 788.984 719, 789.872 718.597, 790.314 716.909 C 790.785 715.105, 790.524 714.903, 788.410 715.433 C 787.062 715.772, 785.068 715.572, 783.979 714.989 C 782.210 714.042, 782 712.872, 782 703.965 L 782 694 786.500 694 C 789.833 694, 791 693.611, 791 692.500 C 791 691.392, 789.840 691, 786.557 691 L 782.115 691 781.807 686.759 C 781.600 683.893, 780.998 682.422, 779.951 682.224 C 779.099 682.063, 778.139 682.194, 777.818 682.515 M 300 692.500 L 300 700 308.045 700 C 315.254 700, 316.346 699.745, 318.545 697.545 C 321.886 694.205, 321.810 689.782, 318.365 687.073 C 316.207 685.375, 314.308 685, 307.865 685 L 300 685 300 692.500 M 229.500 690.491 C 228.950 690.675, 227.262 691.098, 225.750 691.432 C 223.842 691.852, 223 692.666, 223 694.086 C 223 695.786, 223.383 695.996, 225.250 695.317 C 226.488 694.868, 229.677 694.504, 232.338 694.510 C 237.484 694.520, 240 696.423, 240 700.305 C 240 702.013, 239.505 702.153, 235.554 701.560 C 229.936 700.718, 223.530 702.405, 221.537 705.251 C 219.947 707.520, 219.538 711.633, 220.621 714.455 C 222.318 718.877, 232.830 720.495, 237.253 717.016 C 239.768 715.037, 239.776 715.037, 240.294 717.016 C 240.579 718.107, 241.530 719, 242.406 719 C 243.771 719, 244 717.367, 244 707.636 C 244 696.831, 243.876 696.149, 241.486 693.759 C 238.575 690.848, 232.993 689.326, 229.500 690.491 M 264.500 691.172 C 263.400 691.783, 261.476 693.457, 260.226 694.891 C 258.810 696.515, 258.005 696.934, 258.094 696 C 258.448 692.282, 257.904 691, 255.972 691 C 254.019 691, 253.954 691.512, 254.222 704.738 C 254.458 716.388, 254.743 718.522, 256.098 718.782 C 257.428 719.037, 257.801 717.617, 258.315 710.327 C 259.020 700.334, 260.668 697.167, 266.094 695.375 C 268.332 694.635, 269.610 693.521, 269.820 692.125 C 270.181 689.721, 267.860 689.305, 264.500 691.172 M 342.500 690.447 C 341.950 690.655, 340.262 691.098, 338.750 691.432 C 336.822 691.857, 336 692.662, 336 694.126 C 336 695.725, 336.410 696.044, 337.750 695.486 C 338.712 695.085, 341.585 694.535, 344.134 694.263 C 347.930 693.857, 349.151 694.151, 350.884 695.884 C 352.048 697.048, 353 698.951, 353 700.114 C 353 702.048, 352.623 702.171, 348.554 701.560 C 342.936 700.718, 336.530 702.405, 334.537 705.251 C 332.947 707.520, 332.538 711.633, 333.621 714.455 C 335.318 718.877, 345.830 720.495, 350.253 717.016 C 352.768 715.037, 352.776 715.037, 353.294 717.016 C 353.579 718.107, 354.530 719, 355.406 719 C 356.763 719, 357 717.445, 357 708.547 C 357 697.660, 356.146 694.197, 352.973 692.215 C 350.967 690.962, 344.171 689.815, 342.500 690.447 M 414.352 690.993 C 413.171 691.470, 411.907 692.341, 411.543 692.930 C 410.573 694.500, 409 694.234, 409 692.500 C 409 691.660, 408.108 691, 406.972 691 C 405.019 691, 404.954 691.511, 405.222 704.750 C 405.473 717.182, 405.671 718.500, 407.287 718.500 C 408.864 718.500, 409.098 717.369, 409.287 708.830 C 409.479 700.128, 409.743 698.901, 411.924 696.580 C 414.874 693.441, 419.729 693.151, 423.139 695.910 C 425.304 697.662, 425.528 698.697, 425.841 708.410 C 426.157 718.211, 426.331 719, 428.177 719 C 430.075 719, 430.156 718.436, 429.836 707.416 L 429.500 695.831 426.234 692.916 C 422.854 689.897, 418.724 689.229, 414.352 690.993 M 447 690.651 C 443.879 691.896, 439.931 696.542, 438.975 700.095 C 435.804 711.867, 449.076 720.509, 459.482 713.448 L 463.242 710.896 462.540 714.698 C 461.112 722.434, 455.145 725.384, 446.713 722.521 C 444.099 721.633, 441.519 721.179, 440.980 721.512 C 437.032 723.952, 445.180 727.349, 453.682 726.808 C 464.714 726.105, 466.985 721.988, 466.994 702.680 C 467 690.994, 466.975 690.864, 464.750 691.180 C 463.184 691.403, 462.598 692.068, 462.821 693.369 C 463.116 695.086, 462.886 695.055, 459.980 692.986 C 456.843 690.752, 449.883 689.500, 447 690.651 M 500.500 691.861 C 495.358 695.037, 493.692 697.666, 493.221 703.352 C 492.687 709.786, 494.650 714.206, 499.299 717.040 C 503.546 719.630, 510.506 719.598, 514.818 716.970 C 518.992 714.425, 522.438 707.136, 521.589 702.648 C 519.662 692.452, 508.656 686.823, 500.500 691.861 M 539.352 690.993 C 538.171 691.470, 536.907 692.341, 536.543 692.930 C 535.636 694.398, 533.942 694.282, 534.250 692.774 C 534.388 692.099, 533.487 691.393, 532.250 691.204 C 530.010 690.862, 530 690.922, 530 704.462 C 530 715.798, 530.257 718.161, 531.543 718.655 C 532.392 718.981, 533.297 719.036, 533.555 718.778 C 533.813 718.520, 534.132 714, 534.263 708.734 C 534.477 700.155, 534.754 698.890, 536.925 696.579 C 540.048 693.256, 545.802 693.020, 548.595 696.102 C 550.154 697.823, 550.562 700.093, 550.841 708.602 C 551.156 718.211, 551.333 719, 553.177 719 C 555.075 719, 555.156 718.436, 554.836 707.416 L 554.500 695.831 551.234 692.916 C 547.854 689.897, 543.724 689.229, 539.352 690.993 M 693.727 692 C 690.798 694.304, 689.897 694.504, 690.250 692.774 C 690.388 692.099, 689.475 691.391, 688.221 691.200 L 685.943 690.853 686.221 704.664 C 686.460 716.502, 686.733 718.520, 688.132 718.788 C 689.532 719.057, 689.820 717.682, 690.165 709.095 C 690.522 700.224, 690.838 698.801, 692.958 696.545 C 695.926 693.386, 700.899 693.125, 703.494 695.993 C 704.921 697.571, 705.373 700.110, 705.660 708.171 C 705.859 713.773, 706.223 718.556, 706.468 718.801 C 706.713 719.047, 707.608 718.981, 708.457 718.655 C 709.703 718.177, 710 716.167, 710 708.206 C 710 699.195, 710.199 698.162, 712.314 696.174 C 715.297 693.372, 720.091 693.339, 722.595 696.102 C 724.154 697.823, 724.562 700.093, 724.841 708.602 C 725.151 718.049, 725.357 719, 727.091 719 C 728.844 719, 729 718.173, 729 708.901 C 729 701.856, 728.532 697.816, 727.452 695.540 C 724.695 689.730, 717.762 688.315, 711.816 692.350 L 708.353 694.700 705.621 692.350 C 702.226 689.430, 697.183 689.282, 693.727 692 M 806.500 690.491 C 805.950 690.675, 804.263 691.098, 802.750 691.432 C 800.822 691.857, 800 692.662, 800 694.126 C 800 695.725, 800.410 696.044, 801.750 695.486 C 802.712 695.085, 805.585 694.535, 808.134 694.263 C 811.930 693.857, 813.151 694.151, 814.884 695.884 C 816.048 697.048, 817 698.951, 817 700.114 C 817 702.048, 816.623 702.171, 812.554 701.560 C 806.936 700.718, 800.530 702.405, 798.537 705.251 C 796.947 707.520, 796.538 711.633, 797.621 714.455 C 799.318 718.877, 809.830 720.495, 814.253 717.016 C 816.768 715.037, 816.776 715.037, 817.294 717.016 C 817.579 718.107, 818.530 719, 819.406 719 C 820.771 719, 821 717.367, 821 707.636 C 821 696.831, 820.876 696.149, 818.486 693.759 C 815.575 690.848, 809.993 689.326, 806.500 690.491 M 838.071 691.752 C 833.439 694.114, 830.881 697.878, 830.279 703.220 C 829.682 708.514, 831.464 712.530, 836.166 716.486 C 839.062 718.923, 840.022 719.166, 845.241 718.789 C 849.515 718.480, 851.659 717.785, 853.250 716.194 C 856.651 712.793, 854.302 711.607, 849.182 714.140 C 845.303 716.059, 844.602 716.122, 841.214 714.853 C 833.892 712.110, 831.980 702.293, 837.661 696.612 C 840.917 693.356, 846.555 693.075, 850.255 695.986 C 852.427 697.695, 852.946 697.770, 853.976 696.529 C 855.553 694.628, 854.495 693.105, 850.410 691.398 C 845.943 689.531, 842.216 689.638, 838.071 691.752 M 390.222 704.738 C 390.465 716.728, 390.716 718.517, 392.197 718.801 C 393.716 719.092, 393.925 717.655, 394.197 705.061 C 394.500 691.002, 394.499 690.997, 392.222 690.998 C 389.948 691, 389.944 691.026, 390.222 704.738 M 652 702.077 C 652 712.987, 652.044 713.198, 654.923 716.077 C 658.620 719.774, 665.250 720.164, 669.365 716.927 L 672 714.855 672 716.927 C 672 718.333, 672.643 719, 674 719 C 675.905 719, 676 718.333, 676 705 C 676 691.667, 675.905 691, 674 691 C 672.141 691, 672 691.667, 672 700.444 C 672 708.939, 671.762 710.166, 669.630 712.644 C 666.494 716.290, 660.642 716.511, 657.871 713.089 C 656.325 711.180, 656 709.061, 656 700.889 C 656 691.667, 655.865 691, 654 691 C 652.120 691, 652 691.667, 652 702.077 M 445.455 696.455 C 443.705 698.205, 443 700.006, 443 702.732 C 443 707.591, 445.069 710.538, 449.509 712.003 C 456.199 714.211, 464.148 707.712, 462.549 701.341 C 460.782 694.298, 450.539 691.370, 445.455 696.455 M 501.360 695.460 C 496.759 698.683, 495.773 707.882, 499.578 712.086 C 502.525 715.343, 507.440 716.360, 511.323 714.517 C 515.311 712.625, 517 709.458, 517 703.876 C 517 696.070, 507.663 691.045, 501.360 695.460 M 747.367 695.772 C 740.765 701.120, 742.009 711.435, 749.640 714.623 C 760.017 718.959, 767.759 704.668, 759.505 696.414 C 756.583 693.492, 750.574 693.175, 747.367 695.772 M 229.500 704.698 C 224.109 706.069, 222.233 711.649, 226.223 714.443 C 231.719 718.293, 240 714.677, 240 708.427 C 240 705.544, 239.643 704.998, 237.750 704.986 C 236.512 704.979, 234.600 704.796, 233.500 704.581 C 232.400 704.366, 230.600 704.418, 229.500 704.698 M 342 704.672 C 336.879 706.682, 335.428 711.785, 339.223 714.443 C 344.719 718.293, 353 714.677, 353 708.427 C 353 705.743, 352.594 705, 351.125 705 C 350.094 705, 347.956 704.794, 346.375 704.542 C 344.794 704.290, 342.825 704.349, 342 704.672 M 806 704.672 C 800.879 706.682, 799.428 711.785, 803.223 714.443 C 808.719 718.293, 817 714.677, 817 708.427 C 817 705.743, 816.594 705, 815.125 705 C 814.094 705, 811.956 704.794, 810.375 704.542 C 808.794 704.290, 806.825 704.349, 806 704.672"
        stroke="none" fill="#2d3032" fill-rule="evenodd" />
</svg>