<svg xmlns="http://www.w3.org/2000/svg" width="173" height="51" viewBox="0 0 923 320" version="1.1"><path d="M 535.500 47.468 C 503.319 54.487, 479.362 82.712, 477.312 116.020 C 475.942 138.271, 484.140 158.458, 500.978 174.298 C 515.934 188.366, 533.257 194.632, 554.839 193.779 C 568.453 193.241, 578.106 190.458, 589.500 183.785 C 596.917 179.442, 611.278 165.851, 612.492 162.026 C 613.101 160.106, 611.925 158.462, 604.878 151.378 C 600.295 146.770, 596.309 143.001, 596.022 143.002 C 595.735 143.003, 594.232 145.010, 592.683 147.463 C 586.368 157.459, 573.265 166.379, 561.201 168.895 C 536.912 173.960, 511.955 159.229, 504.001 135.133 C 501.611 127.892, 501.157 114.846, 503.049 107.818 C 507.229 92.295, 520.244 78.249, 535.222 73.096 C 555.950 65.964, 580.061 73.905, 592.189 91.858 C 593.913 94.411, 595.490 96.701, 595.693 96.947 C 596.291 97.673, 613 80.659, 613 79.324 C 613 77.064, 602.854 65.888, 596.651 61.317 C 582.520 50.900, 567.708 45.959, 551 46.087 C 545.775 46.126, 538.800 46.748, 535.500 47.468 M 383.293 48.450 C 368.358 51.835, 355.527 61.264, 350.253 72.732 C 347.933 77.776, 347.594 79.817, 347.550 89 C 347.488 101.964, 349.572 107.414, 357.435 114.850 C 365.693 122.660, 375.358 126.686, 401 132.995 C 416.026 136.692, 425.361 140.943, 428.131 145.350 C 431.105 150.080, 430.295 158.018, 426.416 162.152 C 417.799 171.337, 394.981 173.231, 375.722 166.360 C 367.529 163.437, 363.370 161.161, 357.195 156.221 C 354.828 154.326, 352.797 152.939, 352.683 153.138 C 352.568 153.337, 350.275 158.058, 347.587 163.629 L 342.698 173.759 346.099 176.846 C 351.377 181.638, 364.493 187.786, 375.500 190.628 C 388.032 193.864, 408.242 194.324, 419.400 191.627 C 435.359 187.769, 446.518 179.501, 452.267 167.275 C 455.159 161.126, 455.451 159.622, 455.428 151 C 455.400 139.999, 453.625 134.911, 447.420 128.043 C 439.107 118.841, 432.034 115.629, 404.470 108.534 C 386.062 103.796, 378.130 100.429, 375.069 96.051 C 369.573 88.193, 373.745 77.231, 383.967 72.675 C 387.276 71.200, 391.390 70.532, 399.208 70.201 C 412.620 69.632, 421.991 71.655, 433.762 77.662 L 442.131 81.932 443.666 78.216 C 444.510 76.172, 446.470 71.500, 448.021 67.833 C 450.638 61.644, 450.720 61.060, 449.170 59.695 C 446.204 57.083, 435.353 52.108, 427.829 49.909 C 418.305 47.127, 392.818 46.292, 383.293 48.450 M 81.747 119.502 C 62.086 158.828, 46 191.228, 46 191.502 C 46 191.776, 66.508 192, 91.573 192 C 127.542 192, 137.077 191.737, 136.816 190.750 C 136.634 190.063, 133.897 184.438, 130.734 178.250 L 124.983 167 105.408 167 C 94.642 167, 85.989 166.662, 86.180 166.250 C 86.371 165.838, 96.705 145.248, 109.143 120.495 L 131.759 75.490 124.873 61.745 C 121.085 54.185, 117.875 48, 117.740 48 C 117.604 48, 101.407 80.176, 81.747 119.502 M 199.262 95.250 C 199.719 147.050, 199.688 146.760, 206.115 159.955 C 210.428 168.810, 222.996 181.298, 232.053 185.727 C 249.185 194.105, 269.815 194.105, 286.947 185.727 C 296.004 181.298, 308.572 168.810, 312.885 159.955 C 319.312 146.760, 319.281 147.050, 319.738 95.250 L 320.154 48 307.624 48 L 295.094 48 294.797 93.750 L 294.500 139.500 291.626 145.722 C 288.248 153.035, 280.333 161.037, 273.251 164.301 C 266.479 167.421, 252.521 167.421, 245.749 164.301 C 238.667 161.037, 230.752 153.035, 227.374 145.722 L 224.500 139.500 224.203 93.750 L 223.906 48 211.376 48 L 198.846 48 199.262 95.250 M 655.127 119.750 L 618.997 192 664.999 192 C 690.299 192, 711 191.768, 711 191.485 C 711 191.201, 708.297 185.576, 704.992 178.985 L 698.985 167 679.492 167 C 668.772 167, 660 166.773, 660 166.496 C 660 166.218, 670.178 145.639, 682.618 120.764 L 705.236 75.536 698.246 61.518 L 691.256 47.500 655.127 119.750 M 781 120 L 781 192 829 192 L 877 192 877 179.500 L 877 167 841.500 167 L 806 167 806 107.500 L 806 48 793.500 48 L 781 48 781 120 M 137.312 115.401 L 130.633 128.803 146.566 160.385 L 162.500 191.966 176.252 191.983 L 190.004 192 167.500 147 C 155.123 122.250, 144.770 102, 144.493 102 C 144.217 102, 140.985 108.031, 137.312 115.401 M 710.858 115.250 L 704.252 128.500 720.129 160.250 L 736.006 192 749.503 192 C 756.926 192, 763 191.776, 763 191.503 C 763 190.498, 718.493 102, 717.988 102 C 717.700 102, 714.492 107.963, 710.858 115.250 M 60.176 231.138 C 55.808 232.396, 48.581 239.710, 47.014 244.457 C 45.387 249.387, 46.131 257.689, 48.639 262.590 C 54.317 273.687, 70.899 277.255, 82.526 269.881 L 87.313 266.846 83.746 263.280 L 80.180 259.713 77.543 261.788 C 69.113 268.418, 57 262.840, 57 252.328 C 57 246.686, 59.394 242.516, 63.845 240.403 C 68.248 238.314, 74.383 239.072, 77.610 242.103 L 80.023 244.370 83.499 241.001 C 86.743 237.857, 86.867 237.511, 85.356 235.841 C 80.723 230.721, 69.135 228.557, 60.176 231.138 M 133.460 231.064 C 128.694 232.450, 122.357 238.498, 120.456 243.476 C 116.497 253.842, 120.363 265.190, 129.728 270.695 C 133.826 273.104, 135.559 273.497, 142 273.477 C 156.543 273.432, 165 265.349, 165 251.492 C 165 242.579, 159.954 234.967, 151.782 231.553 C 147.780 229.881, 138.390 229.631, 133.460 231.064 M 202 251.500 L 202 273 206.969 273 L 211.938 273 212.219 261.049 L 212.500 249.098 222.295 261.049 L 232.090 273 236.545 273 L 241 273 241 251.448 L 241 229.895 235.750 230.198 L 230.500 230.500 230.218 242.298 L 229.936 254.095 219.958 242.048 C 210.254 230.331, 209.871 230, 205.990 230 L 202 230 202 251.500 M 285.328 231.938 C 280.033 234.342, 277.667 237.934, 277.667 243.566 C 277.667 250.516, 280.922 253.204, 293.278 256.454 C 300.860 258.449, 303.127 260.730, 300.319 263.538 C 298.180 265.677, 289.070 265.188, 284.016 262.661 C 280.691 260.999, 280.472 261.001, 279.222 262.710 C 277.099 265.613, 276.575 269.115, 278.115 270.111 C 278.877 270.604, 281.719 271.681, 284.432 272.504 C 299.009 276.927, 312 271.218, 312 260.388 C 312 254.355, 308.484 250.752, 300.398 248.498 C 290.345 245.697, 289.672 245.426, 288.629 243.774 C 287.913 242.638, 288.001 241.704, 288.930 240.584 C 290.621 238.547, 300.487 238.492, 304 240.500 C 305.375 241.286, 306.765 241.945, 307.090 241.965 C 308.230 242.033, 310.355 233.954, 309.420 233.106 C 305.611 229.656, 291.827 228.987, 285.328 231.938 M 343 234.500 L 343 239 349.500 239 L 356 239 356 256 L 356 273 361.500 273 L 367 273 367 256 L 367 239 373.500 239 L 380 239 380 234.500 L 380 230 361.500 230 L 343 230 343 234.500 M 414 251.365 L 414 273 419.500 273 L 425 273 425 267.500 L 425 262 429.250 262.005 C 433.307 262.010, 433.659 262.260, 437 267.500 L 440.500 272.990 446.250 272.995 C 449.413 272.998, 452 272.792, 452 272.538 C 452 272.283, 450.065 269.321, 447.700 265.955 L 443.401 259.834 447.200 256.035 C 450.761 252.474, 451 251.856, 451 246.194 C 451 241.089, 450.582 239.656, 448.297 236.941 C 444.178 232.046, 440.010 230.776, 426.250 230.223 L 414 229.730 414 251.365 M 488 245.184 C 488 258.498, 488.255 260.896, 490.071 264.647 C 493.208 271.127, 497.765 273.500, 507.073 273.500 C 513.599 273.500, 515.202 273.132, 518.667 270.839 C 525.143 266.553, 526 263.605, 526 245.599 L 526 230 521 230 L 516 230 515.985 243.750 C 515.976 252.822, 515.540 258.351, 514.706 260 C 511.895 265.557, 503.526 266.256, 500.216 261.210 C 498.846 259.122, 498.431 255.708, 498.156 244.297 L 497.812 230 492.906 230 L 488 230 488 245.184 M 575.500 231.902 C 568.444 235.179, 564.722 239.761, 563.059 247.216 C 559.967 261.077, 570.795 274, 585.500 274 C 590.966 274, 596.458 272.104, 600.215 268.920 L 603.500 266.136 600.500 263.093 L 597.500 260.051 592.370 262.593 C 586.076 265.713, 581.326 265.172, 576.996 260.842 C 566.200 250.046, 580.533 232.765, 593.170 241.341 L 596.619 243.681 599.989 240.868 C 603.350 238.062, 603.354 238.048, 601.430 235.886 C 596.350 230.177, 583.473 228.199, 575.500 231.902 M 634 234.500 L 634 239 640.500 239 L 647 239 647 256 L 647 273 652.500 273 L 658 273 658 256 L 658 239 664.500 239 L 671 239 671 234.500 L 671 230 652.500 230 L 634 230 634 234.500 M 705 251.500 L 705 273 710.500 273 L 716 273 716 251.500 L 716 230 710.500 230 L 705 230 705 251.500 M 763.880 232.794 C 751.082 239.480, 748.288 255.848, 758.122 266.517 C 767.329 276.505, 783.671 276.505, 792.878 266.517 C 806.246 252.014, 795.770 230, 775.500 230 C 770.577 230, 768.078 230.601, 763.880 232.794 M 835 251.500 L 835 273 840.468 273 L 845.937 273 846.218 261.321 L 846.500 249.641 855.944 261.321 C 865.353 272.956, 865.405 273, 869.694 273 L 874 273 874 251.500 L 874 230 869.031 230 L 864.062 230 863.781 242.250 L 863.500 254.500 853.540 242.250 C 843.609 230.034, 843.569 230, 839.290 230 L 835 230 835 251.500 M 136.315 240.464 C 129.847 243.276, 127.728 254.146, 132.533 259.857 C 138.973 267.510, 150.027 265.734, 153.562 256.478 C 157.826 245.312, 147.408 235.639, 136.315 240.464 M 425 245.861 L 425 253 430.389 253 C 437.111 253, 440.333 250.767, 440.333 246.108 C 440.333 241.521, 438.172 239.917, 431.131 239.278 L 425 238.722 425 245.861 M 770.030 240.223 C 763.424 243.716, 761.115 252.898, 765.283 259.102 C 768.524 263.927, 774.385 265.886, 779.619 263.894 C 788.278 260.598, 790.763 249.302, 784.260 242.798 C 780.755 239.293, 774.075 238.084, 770.030 240.223" stroke="none" fill="#fff" fill-rule="evenodd"/></svg>